<mxfile host="65bd71144e">
    <diagram id="HIP3nbAZw_EuaXWnEj3U" name="Page-1">
        <mxGraphModel dx="990" dy="476" grid="1" gridSize="10" guides="1" tooltips="1" connect="1" arrows="1" fold="1" page="1" pageScale="1" pageWidth="850" pageHeight="1100" math="0" shadow="0">
            <root>
                <mxCell id="0"/>
                <mxCell id="1" parent="0"/>
                <mxCell id="7" value="http://ics2o.mths.ca" style="swimlane;whiteSpace=wrap;html=1;" parent="1" vertex="1">
                    <mxGeometry x="40" y="40" width="760" height="480" as="geometry"/>
                </mxCell>
                <mxCell id="8" value="&lt;b&gt;&lt;font style=&quot;font-size: 26px;&quot;&gt;Weather App, in Javascript&lt;/font&gt;&lt;/b&gt;" style="whiteSpace=wrap;html=1;" vertex="1" parent="7">
                    <mxGeometry x="200" y="30" width="360" height="60" as="geometry"/>
                </mxCell>
                <mxCell id="9" value="" style="shape=image;verticalLabelPosition=bottom;labelBackgroundColor=default;verticalAlign=top;aspect=fixed;imageAspect=0;image=data:image/png,iVBORw0KGgoAAAANSUhEUgAAAMgAAADICAYAAACtWK6eAAAAGXRFWHRTb2Z0d2FyZQBBZG9iZSBJbWFnZVJlYWR5ccllPAAAB5VJREFUeNrs3U9MFGcYx/GBWmNKsqUHk94cE/WAh66JmN5YbhYOLkk19gT0Vi9AUpOeCttbvahptEegl6axCetlS08spx5sUjxI0tTE8dbIoYQE0p7a9xlfLAIu/2b2fd53vp9ksiaK7My+v33mnXnfd6IIAAAAAAAAAAAAAAAAAAAAAAAAAAAAAAAAAAAAAAAAAAAAAAAAAAAAAAAAAAAAAAAAAAAAAAAAAAAAAAAAAAAAAACgoDo4BH64fHkgNi9lu4k++5qY7bnZVs22ND/faHK0CEhRQiFhGDNbxWzxAX60braH8moCs8qRJCChBaNqXia3VIvDknDcNdsdgkJAQqkYt23FyJKEo2ZCcoejTEB8Dce4DUeepH8yRDUhIL6FY9q8jLTp1yU2JEsceQJCON58ytVPSAgI4WgdkgsmJAmfxJt1cgic9jlGHL6FbrPNmffRzadBQLSFo9yGDvl+yPuY5BMhINpMK3ov4yawFT4SAqKleoxER78BmDWqCJ307KytrbX6xl0qlUqrLQLyLDrYsJF26Wcc107HOAR7hkE6sTL0QwYHVvbTuM3PSECksS2arW4Ck9hwVJWGQ4zZ9wwqyL6rxJgNx1HJ/Ya7165dv5LR/5eX97jLTh9kz2CYbcH8cSHDxix9jul7976pVip9mne/SguggrQ6lZpuRyNJkufR7Oxs9OTJsrbDMGMqyCitgYBsD0fVhqOtN80ePPgx3RSRCVcXtlxQ2Nr/2jpZK7L9FelbPTQ/Uycg4YZjKnJ4mfPRo1+j+/e/jdbX11UcD9PYO2wwxm0fbD9fGum8E/OzUwQkrHC4HAv12ilXrfaVlpAMRS/v8seHvBgxGtIgyA7CoYOykBxFUCOF3ypoOOT04QtN76m7uzs6d+5s1Gwu+n54T5jt+pkzZ39++vSPPwmIf+GomJfvNb63kydPpq/Ly8shhORDE5IfTEj+JiD+hEM6nL/YD1Cl8+d70oCsrKz4frjfN9s/JiBNn3eiaDcKpfOpfv7DjRufhXK8x3yfb1KYCmJPrbxY1aOrqyukU63fTRXxtsNepAri1ZDugYGBV0Hx3BVOsfRXjzjKfq2pnKvIO1FfX18Ih79MQKgeuRgc/CiEYx8TEP28HKUql33jOI5AQPLunHt7JaW39yKtlIDkquLzm5f7InCnCFNuve7p9vT07HkKFsendvydXCJWMt+kSUB0K/u+AxKCJEnSP8ulX7m6JTMTdwvGdjKcvtFouAzL4i7LCi35MrU3+NG8pg/yr+/7IKN8pYHLvZGrVz9OLwEflFSUmZnvXgVNgcRWl1nNq6l0BB4OqR6/+b4fjcZPabVodbq1XwpnMW6GZVRjUEIPiJT2Bbqa2zoFzcV0FqNCdRsUNadfrGpSQNJ/UTogUu5XLWga4EhAChwSpUsQlTWFJPSAsAhaC8PDw68maSkMyRwByVmpVOIJSi3I1TC5Kqa1yJkqMkVAqCLOT7WUVhHhfMKV9zcK7aVc2WKzvRu9fmNw0QaEpyi10Nvbm95MVGhzfa4pAnKwUMjVjs2FoFs1/grNf2+XLl3UGpC0irgMSKdnwRgx2zPbgRuhMmQjixuQeVYRl0/A6vQkGFUbjOnI8wk4Wimfd+IsIMeUB0MqxO1I0QqIoTrM+K42OkVAdu98T0cBjMbF0QscAdkZjgX6GHCtk3BAvHixwkHQHhDb55gjHO21vr6hfanThIC8NBdxlartPFjB8XHh+yD2kQQVmmv7yRWsmzc/33ElS2YxSmXZfHWo6eoXdygJh5xSPePUSvE5TvI8vdsuc9zb/JCfZH6+cbroFWSccOgmU35lkpX0V+QJvW180M+sy/12vrq7rR7yQJsTNEP9jh9/Ox3cKOt1yanXxsZGnr9OBpp+4vIhPBo66SNUD//I+K1bt77Oe4hKzfX8dA0BGaa5+du5n5z8Mq+Q1E04nD/PxWlA7GMJGEpCSLZLHyetYf9cV5AKTSyMkGS4SoqEo1/L0j+uA/IBzSsMcpUrg/ntd0wwLrAu1v84vQqIBOSQ89ubZpNgTGjbJ9cBiWlWYRkcHDhIKKQTftoEQ06pVK5A4/ROeggLS+N1ciNxdPTT/hb/RO6MJ77sDwFBHoZKpVI9hB1h6VHkoS+UHSEgyEOZgGSjSVsKUoWAZINlQUFAWnjMRwACwikWPOV8RuHa2tpfEcPdg1MqlYJ4vJ+Gq1h1mlNwgnkui4aAzNKegpMQkOxKcZO+SHAWCUi2arSpoNQJSPZVhL5IIOEwnyenWDmQKZbcOPTf3ZB2Rk1AzLfOaqRkHjIOrWnPBghITiGR06wJ2pmXgvyCUzea14REZpnN0N68MxFS30NtQGxIRqkkXqmZzyzILzXVwwHs457lMWwMRdEdjqlQd079eBm7uJyEpEJbVNfnmAi1cngTkG3VRJ54G9M2nWtKhzzEPoe3AdkWFFnPt0o7dRKMWmiXcoMKyJagdNuQyOqMZU7BciEVQkbmytiqehEqBgAAAAAAAAAAAAAAAAAAAAAAAAAAAAAAAAAAAAAAAAAAAAAAAAAAAAAAAAAAAAAAAAAAAAAAAAAAAAAAAAAAAACgWP4TYAAG0VHUtP3WNQAAAABJRU5ErkJggg==;" vertex="1" parent="7">
                    <mxGeometry y="140" width="180" height="180" as="geometry"/>
                </mxCell>
                <mxCell id="10" value="&lt;b&gt;&lt;font style=&quot;font-size: 17px;&quot;&gt;Ottawa&#39;s weather right now is...&lt;/font&gt;&lt;/b&gt;" style="text;html=1;align=center;verticalAlign=middle;resizable=0;points=[];autosize=1;strokeColor=none;fillColor=none;" vertex="1" parent="7">
                    <mxGeometry y="130" width="280" height="30" as="geometry"/>
                </mxCell>
                <mxCell id="12" value="CHECK THE WEATHER" style="rounded=1;whiteSpace=wrap;html=1;" vertex="1" parent="7">
                    <mxGeometry x="15" y="330" width="150" height="40" as="geometry"/>
                </mxCell>
            </root>
        </mxGraphModel>
    </diagram>
</mxfile>